<svg xmlns="http://www.w3.org/2000/svg" viewBox="0 0 537 537">
  <rect width="537" height="537" fill="#050B14"/>
  <g transform="translate(0, 136)">
    <defs><style>.st0{fill:none}.st1{fill:#fff;fill-rule:evenodd}</style></defs><g><path class="st1" d="M80.33,156.61c-3.84-2.33-8.94-3.53-15.24-3.53h-17.45c-9.89,0-9.89-3.72-9.89-5.1,0-1.51,0-5.48,9.89-5.48h34.95v-9.76h-34.95c-5.54,0-10.33,1.26-14.36,3.72-4.66,2.83-7.05,6.74-7.05,11.52s2.08,8.63,6.17,11.08c3.84,2.39,8.94,3.59,15.24,3.59h17.45c9.89,0,9.89,3.84,9.89,5.1,0,1.51,0,5.48-9.89,5.48H30.13v9.7h34.95c5.54,0,10.39-1.2,14.36-3.71,4.66-2.83,7.05-6.68,7.05-11.46s-2.08-8.69-6.17-11.15"></path><path class="st1" d="M402.89,133.12v33.19c0,1.76-.69,3.15-2.14,4.34-1.76,1.45-4.28,2.2-7.5,2.2h-21.35c-3.08,0-5.61-.76-7.37-2.2-1.51-1.19-2.2-2.58-2.2-4.34v-33.19h-11.78v33.19c0,4.41,2.02,8.19,6.05,11.4,4.15,3.21,9.32,4.85,15.3,4.85h21.35c6.05,0,11.21-1.64,15.3-4.85,4.03-3.21,6.11-6.99,6.11-11.4v-33.19h-11.78"></path><path class="st1" d="M306.48,153.08h-39.17v9.57h25.07v10.2h-26.89c-4.35,0-7.75-.82-10.2-2.46-2.27-1.51-3.34-3.27-3.34-5.48v-14.11c0-2.27,1.07-3.97,3.34-5.48,2.46-1.64,5.86-2.46,10.2-2.46h36.78v-9.76h-36.78c-7.12,0-13.1,1.64-17.82,4.91-4.98,3.4-7.5,7.75-7.5,12.78v14.11c0,5.04,2.52,9.32,7.5,12.72,4.72,3.28,10.71,4.91,17.82,4.91h38.67v-19.96h2.33c2.77,0,5.04-2.14,5.04-4.72s-2.27-4.79-5.04-4.79"></path><path class="st1" d="M158.86,133.12c-7.12,0-13.1,1.64-17.82,4.91-4.97,3.4-7.49,7.75-7.49,12.78v2.27h-5.29c-2.77,0-5.04,2.14-5.04,4.79s2.27,4.79,5.04,4.79h5.29v2.27c0,5.04,2.52,9.32,7.49,12.72,4.72,3.28,10.71,4.91,17.82,4.91h34.95v-9.7h-34.95c-4.34,0-7.75-.82-10.2-2.46-2.27-1.51-3.34-3.28-3.34-5.48v-2.27h39.86c2.84,0,5.1-2.2,5.1-4.79s-2.27-4.79-5.1-4.79h-39.86v-2.27c0-2.27,1.07-3.97,3.34-5.48,2.46-1.64,5.86-2.46,10.2-2.46h34.95v-9.76h-34.95"></path><path class="st1" d="M487.04,133.12c-7.12,0-13.1,1.64-17.82,4.91-4.98,3.4-7.49,7.75-7.49,12.78v2.27h-5.29c-2.77,0-5.04,2.14-5.04,4.79s2.27,4.79,5.04,4.79h5.29v2.27c0,5.04,2.52,9.32,7.49,12.72,4.72,3.28,10.71,4.91,17.82,4.91h34.95v-9.7h-34.95c-4.35,0-7.75-.82-10.2-2.46-2.27-1.51-3.34-3.28-3.34-5.48v-2.27h39.87c2.83,0,5.1-2.2,5.1-4.79s-2.27-4.79-5.1-4.79h-39.87v-2.27c0-2.27,1.07-3.97,3.34-5.48,2.46-1.64,5.86-2.46,10.2-2.46h34.95v-9.76h-34.95"></path></g><g><path class="st1" d="M166.49,224.89c0,2.47-.82,4.56-2.54,6.35-1.79,1.95-4.04,2.84-6.66,2.84h-2.77v10.18h-3.67v-10.18h-2.77c-2.7,0-4.94-.9-6.73-2.84-1.65-1.79-2.54-3.88-2.54-6.35v-10.09h3.74v10.09c0,1.57.45,2.84,1.43,3.81.97,1.2,2.39,1.72,4.11,1.72h9.2c1.72,0,3.14-.52,4.19-1.72.9-.97,1.34-2.24,1.34-3.81v-10.09h3.67v10.09"></path><path class="st1" d="M228.2,244.28h-3.67v-10.18h-10.62v-3.67h10.62v-6.44c0-3.67-2.17-5.53-6.51-5.53h-4.11v-3.67h4.11c3.22,0,5.69.82,7.48,2.47,1.79,1.65,2.7,3.9,2.7,6.73v20.27M213.91,234.1v-3.67h-10.62v-6.44c0-3.67,2.17-5.53,6.51-5.53h4.11v-3.67h-4.11c-3.22,0-5.69.82-7.48,2.47-1.79,1.65-2.7,3.9-2.7,6.73v20.27h3.66v-10.18h10.63Z"></path><path class="st1" d="M287.14,244.26h-14.74c-3.22,0-5.83-.97-7.93-2.99-2.09-1.95-3.15-4.33-3.15-7.19v-9.2c0-2.77,1.05-5.17,3.15-7.19,2.09-1.95,4.71-2.92,7.93-2.92h14.74v3.67h-14.74c-2.24,0-4.04.59-5.38,1.79s-2.02,2.77-2.02,4.64v9.2c0,1.95.68,3.44,2.02,4.64,1.34,1.27,3.14,1.86,5.38,1.86h14.74v3.67"></path><polyline class="st1" points="348.99 244.26 345.32 244.26 345.32 231.33 325.05 231.33 325.05 244.26 321.31 244.26 321.31 214.8 325.05 214.8 325.05 227.66 345.32 227.66 345.32 214.8 348.99 214.8 348.99 244.26"></polyline><polyline class="st1" points="409.42 218.47 397.45 218.47 397.45 244.26 393.79 244.26 393.79 218.47 381.82 218.47 381.82 214.8 409.42 214.8 409.42 218.47"></polyline></g><g><line class="st0" x1="277.86" y1="71.53" x2="277.86" y2="71.53"></line><path class="st1" d="M274.83,16.54c-4.85,0-22.17,19.9-22.17,32.18s9.95,22.98,22.17,22.98c1.01,0,2.01-.06,3.02-.19-21.41-18.01-10.96-30.86-10.96-30.86,1.83-2.58,4.79-4.22,8-4.22,2.33,0,4.41.76,6.11,2.08,1.89-.44,8.69-1.7,16.31,2.14-3.21-9.95-11.78-19.77-22.48-24.12"></path><path class="st1" d="M263.87,65.1v-.06.06"></path><line class="st0" x1="270.36" y1="50.93" x2="270.36" y2="50.93"></line><path class="st1" d="M273.39,105.85c4.79,0,22.17-19.84,22.17-32.18s-9.95-22.99-22.17-22.99c-1.01,0-2.02.13-3.02.25,21.41,18.01,10.9,30.86,10.9,30.86-1.76,2.52-4.72,4.22-7.94,4.22-2.33,0-4.41-.82-6.11-2.14-1.89.5-8.69,1.7-16.31-2.14,3.15,10.01,11.78,19.84,22.48,24.12"></path><path class="st1" d="M284.15,51.56c6.55-.76,10.46,2.46,10.46,2.46,2.52,1.76,4.16,4.72,4.16,8.06,0,2.33-.76,4.41-2.08,6.11.51,1.95,1.7,8.75-2.14,16.31,10.01-3.15,19.84-11.78,24.12-22.48,0-4.91-19.84-22.29-32.18-22.29-7.75,0-14.67,3.97-18.89,9.89v.06c1.82-.44,3.78-.69,5.73-.69,3.78,0,7.56.94,10.83,2.58"></path><path class="st1" d="M264.07,70.96c-6.55.69-10.45-2.46-10.45-2.46-2.58-1.83-4.22-4.79-4.22-8.12,0-2.27.82-4.41,2.14-6.05-.5-1.95-1.76-8.75,2.14-16.31-10.02,3.15-19.84,11.78-24.12,22.42,0,4.98,19.84,22.36,32.18,22.36,7.68,0,14.68-3.97,18.83-9.95h.06c-1.89.44-3.78.69-5.79.69-3.78,0-7.56-.94-10.77-2.58"></path></g>
  </g>
</svg>
